<svg xmlns="http://www.w3.org/2000/svg" width="130.252" height="91.904" viewBox="0 0 122.111 86.16">
  <g fill="#b3b3b3">
    <path d="M46.685 68.258c-.309-.032-.385-.02-.528.086a.907.907 0 0 1-.4.141 1.332 1.332 0 0 0-.431.103c-.114.052-.187.116-.187.177 0 .079.046.142.124.19a.768.768 0 0 0 .313.092 1.64 1.64 0 0 0 .842-.144c.257-.122.627-.465.627-.582 0-.014-.162-.042-.36-.063zm21.388-47.457c-.065 0-.119.037-.119.08 0 .045-.054.13-.121.19-.096.087-.119.17-.105.38a.597.597 0 0 0 .042.228c.024.044.062.065.125.082.224.062.495.059.596-.007.08-.052.08-.065 0-.118a.376.376 0 0 0-.163-.06c-.04 0-.116-.084-.17-.187-.075-.146-.082-.218-.03-.33.046-.103.066-.167.058-.205-.008-.04-.045-.053-.113-.053z"/>
    <path d="M44.46 12.922c-.089.022-.095.04-.031.079.064.04.057.06-.034.094-.1.038-.24.154-.358.277-.116.122-.208.252-.208.319a.3.3 0 0 0 .093.204c.064.053.08.135.051.23a.718.718 0 0 1-.207.305c-.086.08-.13.125-.152.222-.023.098-.024.249-.024.543 0 .293.001.444.02.525.019.082.055.094.126.112.122.03.158.093.214.374.037.185.092.383.122.44a.5.5 0 0 1 .053.263c-.007.08-.038.14-.088.14-.065 0-.09.066-.09.238 0 .13.027.238.059.238s.111.104.176.23c.065.128.156.247.203.265.048.018.146.215.22.439.073.223.16.44.192.48.061.078.341.166.708.223.17.027.226.067.256.188.026.102-.048.405-.148.697-.1.29-.227.57-.307.627-.1.07-.117.142-.105.477.011.29.016.438-.01.519-.024.08-.078.094-.186.117-.122.027-.192.054-.232.118-.04.064-.05.163-.05.333 0 .193.038.324.129.44.084.106.139.278.156.481.02.252.06.346.192.463.11.098.18.235.209.406.023.142.07.275.102.296.082.052.076.37-.007.397-.037.012-.067.128-.067.257 0 .196.025.244.149.291.069.027.106.048.126.108.02.06.023.158.023.338 0 .305.019.388.09.388.055 0 .082.016.082.084 0 .067-.027.186-.083.393-.048.18-.088.451-.088.602 0 .188-.056.377-.174.598-.123.23-.19.472-.236.842-.035.285-.091.57-.125.634-.035.066-.062.522-.062 1.058 0 .807-.016.974-.111 1.151-.061.114-.13.295-.154.401-.023.106-.067.208-.097.227-.03.018-.055.12-.055.225 0 .105-.053.29-.119.413-.074.138-.12.336-.12.522 0 .228-.03.4-.093.523a.423.423 0 0 1-.294.228c-.096.022-.154.045-.2.09a.607.607 0 0 0-.119.225c-.073.198-.142.278-.28.327-.1.036-.269.153-.373.26a.589.589 0 0 0-.159.225c-.026.078-.03.177-.03.349v.376l.262.1c.196.075.273.142.303.261.022.088.062.174.09.191.027.017.057.168.066.335.013.239-.012.34-.114.47-.072.09-.13.201-.13.246 0 .047-.095.095-.232.117-.108.017-.166.03-.201.067-.035.037-.047.097-.062.209-.018.131-.06.268-.096.304-.036.035-.24.075-.454.089-.178.011-.277.021-.342.047-.064.026-.095.069-.134.145-.048.092-.136.183-.197.203-.067.02-.13.09-.175.181a.748.748 0 0 0-.073.322c0 .214-.04.363-.127.46-.088.097-.225.14-.421.14-.089.001-.296.03-.46.066-.14.03-.216.05-.265.09-.048.038-.068.096-.097.201-.044.167-.1.238-.208.265-.098.024-.16.092-.184.2-.042.19-.076.307-.13.397a.73.73 0 0 1-.243.231c-.17.115-.277.221-.341.364s-.086.323-.086.587c0 .38.026.486.19.79.136.25.2.46.224.736l.033.386.365.08c.167.038.262.063.334.11.073.047.122.115.198.235.098.155.237.288.339.323.172.06.397.28.4.391.001.033-.129.262-.288.508-.16.246-.308.532-.331.635a.337.337 0 0 1-.194.24c-.107.052-.257.077-.453.077h-.238l.05.461c.046.421.063.686.042.881a.894.894 0 0 1-.184.47c-.122.17-.189.333-.189.461 0 .089.01.145.06.206.05.06.138.126.296.232.196.13.36.278.364.327.015.151-.013.267-.071.288a.306.306 0 0 0-.174.163.734.734 0 0 0-.058.317c0 .239.023.296.144.361.076.04.13.096.163.176.034.08.05.185.05.324a.7.7 0 0 0 .12.338c.105.147.115.225.081.605-.026.295-.047.457-.103.544-.056.087-.145.1-.308.1-.146 0-.266.027-.266.06s-.038.06-.085.06c-.085 0-.196.31-.332.923a1.677 1.677 0 0 1-.154.432c-.102.157-.485.41-.7.464a.256.256 0 0 0-.183.174.23.23 0 0 1-.141.158.845.845 0 0 1-.33.052c-.184 0-.284.016-.337.12-.054.104-.061.298-.061.656 0 .32 0 .483.019.57.018.088.054.1.124.118.077.02.13.062.163.141.035.08.05.195.054.362.002.114.036.298.075.408.03.083.06.137.114.18a.81.81 0 0 0 .255.118c.139.046.214.075.261.121.047.047.067.112.093.23.031.14.077.253.102.253.025 0 .063.093.084.206.021.114.075.238.12.275.106.088.174.452.102.547-.03.04-.088.186-.128.324-.043.153-.115.264-.185.286-.084.026-.125.113-.153.316a5.197 5.197 0 0 1-.092.489c-.074.283-.07.7.008.725.034.012.083.168.107.348.025.18.118.47.206.644.088.175.16.366.16.426s-.161.286-.358.503c-.196.217-.357.419-.357.45 0 .03-.092.072-.204.094-.112.02-.218.072-.233.113-.016.04-.152.132-.302.203-.15.07-.274.155-.274.187 0 .063-.043.069-.163.02 0-.18-.134.663 0 .542.04.008.15.046.242.084.092.038.266.07.387.07.183 0 .3.014.385.06.085.046.14.125.199.257.054.119.085.18.138.215.053.035.13.043.272.051.224.014.338.058.461.175.073.069.11.11.121.146.011.035-.006.063-.044.105-.051.057-.103.291-.126.577-.02.234-.029.355-.013.441.017.086.058.136.14.227.09.103.19.187.218.187.03 0 .18.057.333.128.249.113.528.166 1.425.267.195.022.31.086.518.288.147.143.32.277.383.297.064.02.111.07.142.154.03.084.045.202.045.361 0 .144.494.444.603.533.73.061 1.474-.53 1.877-1.142.175-.202.334-.418.354-.478.019-.06.058-.11.088-.11.03 0 .097-.083.15-.184a.58.58 0 0 1 .293-.26c.135-.06.304-.092.499-.092.289 0 1.538-.125 1.88-.315.161-.09-1.322 1.019-.774 1.058.097.007 1.064-1.138 1.156-1.21a6.164 6.164 0 0 1 1.152-.72 2.5 2.5 0 0 0 .601-.4c.175-.158.318-.334.407-.508.064-.126.103-.316.111-.488.009-.173-.013-.328-.068-.384-.053-.052-.178-.074-.297-.07-.118.003-.228.033-.249.088-.019.05-.106.09-.194.09-.084 0-.214-.081-.384-.236a6.586 6.586 0 0 1-.623-.68c-.21-.256-.315-.385-.409-.45-.093-.064-.173-.064-.334-.064-.164 0-.298.02-.298.047 0 .026.149.098.33.16.272.092.328.134.313.235-.01.067-.093.159-.185.203-.149.07-.196.064-.44-.06-.214-.109-.292-.19-.359-.376-.076-.213-.116-.337-.12-.411-.004-.075.026-.101.089-.121.083-.026.187-.114.285-.23a1.58 1.58 0 0 0 .243-.4c.052-.131.13-.238.174-.238.043 0 .127-.061.187-.135.06-.074.181-.181.27-.239a.904.904 0 0 0 .262-.297c.055-.106.176-.282.27-.39.094-.107.238-.328.32-.49.082-.163.177-.297.21-.297s.086-.067.117-.149c.07-.183.641-.905.75-.946.043-.017.133-.137.2-.268a1.37 1.37 0 0 1 .383-.419c.144-.099.277-.24.296-.315.03-.125.156-.286.339-.46a5.19 5.19 0 0 1 .686-.537 6.6 6.6 0 0 1 .812-.467c.268-.127.52-.219.72-.25a2.62 2.62 0 0 0 .493-.122c.081-.033.133-.048.192-.037a.78.78 0 0 1 .238.12c.173.109.33.157.514.157h.264l.214-.431c.127-.257.23-.415.384-.533.155-.118.36-.196.693-.29.262-.075.526-.187.586-.249a.688.688 0 0 1 .329-.187c.15-.043.356-.07.664-.097.314-.026.645-.09.744-.142a.838.838 0 0 1 .313-.096c.074 0 .134-.023.134-.051 0-.096 1.05-.72 1.215-.722.03-.001.194-.068.365-.148.17-.081.543-.215.829-.298.286-.082.54-.162.563-.177.024-.015.43-.112.903-.215.852-.187 1.938-.516 2.27-.688.095-.049.347-.142.559-.208.212-.065.384-.141.384-.17 0-.056.106-.117.258-.163a1.94 1.94 0 0 1 .538-.079c.214 0 .403-.023.421-.052.018-.03.336-.204.705-.389.29-.144.476-.23.645-.286.168-.056.32-.083.54-.108.281-.032.605-.097.72-.145a3.22 3.22 0 0 1 .648-.141c.39-.049.814-.208 1.156-.409.17-.1.32-.21.433-.322a.758.758 0 0 0 .218-.33c.02-.078.061-.141.094-.141.032 0 .059-.1.059-.224 0-.132.104-.409.226-.656.122-.247.262-.465.335-.48.052-.01.138-.104.19-.208a1.71 1.71 0 0 1 .213-.318.964.964 0 0 0 .172-.369c.03-.132.12-.311.202-.4.081-.087.218-.283.304-.435.116-.205.31-.428.51-.61.202-.18.41-.318.559-.351.135-.03.323-.096.42-.146a.804.804 0 0 1 .267-.092c.05 0 .183-.067.294-.149.112-.082.226-.149.255-.149.057 0 .754-.558.996-.797.213-.21.74-.562.904-.603.076-.02.246-.145.377-.28.14-.142.461-.353.775-.507.295-.145.764-.382 1.042-.526.279-.144.543-.262.587-.263a.733.733 0 0 0 .238-.09c.087-.048.252-.13.367-.18.336-.151.557-.277.685-.389.126-.111.745-.416.845-.416.1 0 .26-.213.319-.428.04-.148.114-.232.266-.305a.653.653 0 0 0 .278-.25c.045-.099.146-.17.297-.211.125-.034.229-.084.229-.11 0-.027.154-.09.342-.141.189-.051.517-.157.73-.235.178-.065.28-.108.367-.179.087-.071.159-.17.277-.346.14-.21.278-.397.304-.415a.919.919 0 0 0 .149-.227c.055-.109.146-.213.201-.233a1.48 1.48 0 0 0 .28-.167c.099-.073.307-.19.462-.26.156-.071.283-.152.283-.179 0-.027.067-.122.149-.21.082-.089.149-.199.149-.246 0-.187.193-.551.325-.611.079-.036.17-.155.21-.275.055-.169.112-.222.288-.271.12-.034.294-.061.386-.062.131 0 .18-.038.228-.174.045-.131.113-.186.278-.225.098-.023.154-.043.195-.089.041-.046.067-.117.102-.242.052-.186.137-.32.255-.404.096-.069.175-.177.175-.24 0-.108.062-.408.187-.905.03-.122.082-.223.114-.223.063 0 .077-.54.021-.818-.026-.133-.092-.202-.266-.278-.189-.084-.237-.141-.27-.317a1.603 1.603 0 0 0-.122-.369.802.802 0 0 1-.08-.309c0-.201.115-.53.186-.53.05 0 .046-.198.016-.413-.03-.214-.088-.445-.147-.51a1.05 1.05 0 0 1-.167-.278c-.037-.097-.191-.237-.373-.359-.181-.121-.39-.225-.538-.252-.12-.02-.233-.077-.251-.126-.019-.048-.07-.088-.114-.088s-.127-.099-.186-.22c-.121-.255-.24-1.259-.184-1.566.028-.158.155-.426.29-.655.136-.228.28-.418.346-.418.06 0 .108.041.108.092 0 .066.124.147.29.212.166.065.374.113.543.113a1.2 1.2 0 0 0 .456-.089.885.885 0 0 1 .34-.089c.117 0 .179-.036.2-.116.016-.063.108-.142.203-.175.086-.03.129-.046.15-.116.022-.07.023-.194.024-.44 0-.287.01-.477.034-.596.025-.119.035-.166.094-.166-.36-1.03.04-.27-.15-.771 0-.03-.318-.301-.441-.302-.16 0-.282-.015-.365-.043-.083-.027-.127-.068-.127-.12 0-.077-.074-.086-.47-.059-.27.019-.467.003-.607-.052a.391.391 0 0 1-.256-.285c-.021-.085-.065-.155-.098-.155-.034 0-.058-.288-.058-.717v-.717l-.809.008c-.386.004-.59.004-.715-.013a.38.38 0 0 1-.247-.119c-.343-.314-.443-.428-.492-.555-.025-.066-.042-.1-.186-.116-.145-.017-.418-.018-.956-.018-.6 0-1.137.023-1.191.05-.055.029-.117.13-.139.228l-.038.176-.51-.037c-.432-.03-.518-.02-.563.06-.03.054-.15.115-.267.137-.162.03-.226.08-.27.207a.89.89 0 0 1-.267.326.933.933 0 0 0-.263.303c-.026.07-.044.105-.1.12-.058.013-.154.005-.337-.014a2.842 2.842 0 0 0-.77.01c-.206.036-.36.106-.453.208-.086.095-.24.201-.343.237-.147.052-.194.109-.225.276-.026.138-.08.222-.156.242-.088.023-.115.082-.115.257 0 .125.025.294.056.374.038.1.043.194.02.27a.213.213 0 0 1-.15.15c-.069.017-.273-.021-.455-.085a2.393 2.393 0 0 0-.733-.116c-.188 0-.29.003-.357.025-.068.021-.1.063-.148.139-.079.127-.143.206-.225.252-.082.046-.181.06-.328.06-.201-.001-.329-.013-.418-.051-.09-.038-.14-.102-.187-.206-.053-.122-.194-.253-.394-.368-.247-.142-.319-.218-.35-.372-.016-.087-.031-.135-.064-.162-.033-.027-.085-.032-.174-.032-.337 0-1.394-.268-1.394-.354 0-.028-.074-.068-.164-.09a.77.77 0 0 1-.283-.15c-.075-.07-.252-.123-.477-.144a17.8 17.8 0 0 0-1.028-.086c-.16-.003-.188.02-.24.066-.124.11-.288.194-.48.252a2.283 2.283 0 0 1-.654.089c-.395 0-.516.025-.744.152-.124.07-.194.115-.241.18-.047.066-.071.152-.105.305-.041.183-.113.363-.16.399a6.08 6.08 0 0 0-.283.25 1.745 1.745 0 0 1-.53.307 1.65 1.65 0 0 1-.589.128 2.3 2.3 0 0 1-.515-.089c-.12-.037-.193-.067-.257-.13-.063-.063-.12-.158-.207-.325-.142-.27-.195-.45-.193-.652.001-.222-.022-.286-.111-.315-.058-.018-.104-.066-.135-.14a.777.777 0 0 1-.05-.294c0-.109-.034-.134-.18-.134a.65.65 0 0 0-.289.069c-.073.046-.206.05-.328.024-.123-.025-.236-.078-.273-.146-.032-.06-.153-.124-.27-.143-.115-.019-.324-.126-.463-.239-.187-.15-.306-.236-.433-.283-.128-.047-.264-.056-.488-.056-.238 0-.456-.033-.525-.078-.163-.109-.41-.18-.64-.203-.229-.024-.44 0-.532.083-.084.077-.126.084-.18.03-.039-.039-.212-.07-.386-.07h-.315v.234c0 .208-.018.335-.085.424-.068.088-.185.139-.386.194a2.863 2.863 0 0 1-.627.101c-.146 0-.28.025-.3.055-.018.03-.111.072-.207.093-.141.031-.193.092-.279.332a.762.762 0 0 1-.12.248c-.044.047-.096.066-.18.082-.22.041-1.185.012-1.235-.038-.018-.018-.077-.237-.132-.486l-.1-.454.217-.19c.097-.085.15-.14.18-.207a.653.653 0 0 0 .037-.273c0-.149-.035-.297-.106-.443a1.61 1.61 0 0 0-.314-.43.328.328 0 0 1-.109-.213c-.016-.106-.016-.273-.012-.575.005-.308.006-.477-.015-.601a.915.915 0 0 0-.138-.339 2.269 2.269 0 0 0-.204-.314c-.021-.016-.082-.177-.135-.357a1.623 1.623 0 0 0-.214-.44c-.087-.127-.178-.216-.238-.216-.027 0-.08-.12-.118-.268a.583.583 0 0 0-.1-.243.64.64 0 0 0-.229-.148c-.216-.102-.272-.162-.314-.343l-.052-.219-.399-.017c-.22-.01-.589.021-.822.07-.367.076-.454.076-.664.003-.27-.096-.709-.113-.794-.032-.031.03-.22.095-.42.146-.174.044-.268.065-.348.061-.08-.004-.144-.033-.26-.09-.112-.055-.174-.092-.217-.154-.043-.062-.066-.15-.1-.304-.041-.198-.094-.336-.18-.447-.087-.11-.209-.192-.389-.277-.144-.068-.277-.16-.295-.207-.025-.066-.2-.083-.826-.082-.444 0-.7-.006-.863-.037a.456.456 0 0 1-.316-.19c-.066-.084-.193-.132-.337-.141a.858.858 0 0 0-.442.09.56.56 0 0 1-.28.083c-.076-.004-.14-.04-.203-.11a.873.873 0 0 0-.322-.186 3.759 3.759 0 0 1-.424-.172 3.439 3.439 0 0 0-1.297-.356c-.27-.022-.524-.073-.563-.112-.039-.039-.152-.071-.252-.073-.195-.003-.599-.16-.45-.175.063-.007.054-.025-.03-.06.217-.001-.865-.023-.649-.017z"/>
  </g>
  <path d="M66.246 0a6.215 6.215 0 0 0-5.174 2.777 6.273 6.273 0 0 0-5.218-2.76H6.217C2.809.018 0 2.702 0 6.042v74.096c0 3.34 2.81 6.023 6.217 6.023h49.637a6.27 6.27 0 0 0 5.246-2.805c1.115 1.666 2.996 2.778 5.146 2.778h49.649a6.226 6.226 0 0 0 6.216-6.219V6.22A6.226 6.226 0 0 0 115.895 0H66.246zm0 2h49.649a4.187 4.187 0 0 1 4.216 4.219v73.695a4.187 4.187 0 0 1-4.216 4.219H66.246c-2.236 0-4.008-1.69-4.182-3.877.001-.04.006-.079.006-.12v-.095h-.029c-.001-.035-.01-.068-.01-.103l.006-23.043c5.048-.464 9.23-3.904 10.795-8.545h7.088v4.625l8.762-8.762-8.426-8.426v3.785h-7.504a.499.499 0 0 0-.168.028c-1.732-4.282-5.742-7.403-10.525-7.85l.003-24.596h.008V6.041c0-.053-.006-.104-.008-.156C62.232 3.694 64.007 2 66.246 2zm-60.03.018h49.638c2.297 0 4.08 1.687 4.195 3.812-.008.13-.02.258-.02.389a.999.999 0 0 0 .033.271l-.003 25.242c-4.861.311-8.972 3.376-10.8 7.647a.495.495 0 0 0-.157-.024H41.6V35.57l-8.426 8.428 8.762 8.762v-4.625h6.9c1.545 4.868 5.962 8.459 11.262 8.781l-.004 22.629a1 1 0 0 0-.065.37c0 .12.02.237.028.356-.075 2.162-1.879 3.89-4.203 3.89H6.217C3.843 84.16 2 82.361 2 80.136V6.04c0-2.225 1.843-4.023 4.217-4.023zM60.872 32.69c6.43 0 11.633 5.203 11.633 11.633 0 6.43-5.203 11.631-11.633 11.631-6.43 0-11.63-5.2-11.63-11.63 0-6.43 5.2-11.634 11.63-11.634zm-3.307 5.059v14.598h.897V37.75h-.897zm6.045 0v14.598h1V37.75h-1zm-2.996.049v14.596h1V37.799h-1zm-20.013.187v2.37h8.29a12.582 12.582 0 0 0-.65 3.968c0 .968.122 1.906.328 2.81h-7.632v3.212l-6.348-6.348 6.012-6.012zm40.656.215l6.012 6.012-6.348 6.348v-3.21h-7.795c.24-.971.379-1.981.379-3.026 0-1.307-.207-2.565-.576-3.752h8.328v-2.37z"/>
</svg>
