<svg xmlns="http://www.w3.org/2000/svg" width="130.209" height="91.885" viewBox="0 0 122.071 86.142">
  <g fill="#b3b3b3">
    <path d="M73.327 70.392c-.308-.032-.385-.02-.528.086a.907.907 0 0 1-.4.142 1.332 1.332 0 0 0-.43.103c-.115.051-.188.115-.188.176 0 .079.046.143.124.19a.768.768 0 0 0 .313.093c.252.027.572-.017.842-.145.257-.122.628-.465.628-.582 0-.014-.163-.042-.361-.063zm21.389-47.457c-.066 0-.12.037-.12.081 0 .044-.054.13-.121.19-.095.086-.119.17-.105.38a.597.597 0 0 0 .042.227c.024.044.062.065.125.083.224.061.495.058.596-.008.08-.052.08-.065 0-.117a.376.376 0 0 0-.162-.06c-.04 0-.117-.085-.17-.188-.076-.146-.083-.218-.032-.33.047-.102.067-.167.06-.205-.009-.039-.046-.053-.113-.053z"/>
    <path d="M71.102 15.056c-.088.023-.095.04-.031.079.064.04.058.06-.034.094-.099.038-.24.154-.357.277-.117.122-.209.253-.209.319a.3.3 0 0 0 .093.204c.064.053.08.136.052.23a.718.718 0 0 1-.208.306c-.086.08-.13.124-.152.222-.022.097-.024.248-.024.542 0 .294.002.444.02.526.019.08.055.093.127.111.121.03.157.093.213.374.037.185.092.383.122.44a.5.5 0 0 1 .053.263c-.007.08-.037.14-.088.14-.064 0-.089.066-.089.238 0 .131.026.239.058.239s.112.103.176.23c.065.127.157.246.204.264.047.018.146.216.22.439.072.224.159.44.191.48.062.079.341.166.708.223.171.027.226.067.257.188.025.102-.048.405-.149.697-.1.291-.227.57-.307.627-.1.07-.116.142-.104.478.01.29.015.437-.01.518-.025.08-.08.094-.187.117-.122.027-.192.054-.232.118-.04.064-.049.163-.05.333 0 .193.038.324.13.44.083.106.138.278.155.481.02.252.06.346.192.464.11.097.18.234.209.405.024.142.07.276.102.296.082.052.076.37-.007.397-.037.012-.067.128-.067.257 0 .196.025.244.149.292.069.026.106.047.126.107.02.06.023.158.023.338 0 .305.02.388.09.388.055 0 .082.016.082.084s-.027.186-.082.393c-.049.18-.089.451-.089.602 0 .188-.055.377-.173.598-.124.23-.192.473-.237.842-.035.286-.09.57-.125.634-.035.066-.062.522-.062 1.059 0 .806-.016.973-.11 1.15a1.857 1.857 0 0 0-.154.401c-.024.106-.067.208-.098.227-.03.019-.055.12-.055.225 0 .105-.053.291-.119.413a1.18 1.18 0 0 0-.12.522c0 .228-.029.4-.092.523a.423.423 0 0 1-.295.228c-.095.023-.154.045-.2.09a.607.607 0 0 0-.119.225c-.073.198-.142.278-.28.327-.1.036-.268.153-.372.26a.589.589 0 0 0-.16.225c-.025.078-.03.177-.03.349v.377l.263.1c.195.075.272.14.302.26.022.089.063.175.09.191.027.017.057.168.066.336.013.238-.012.339-.114.469-.072.09-.13.201-.13.246 0 .047-.095.095-.231.117-.109.018-.167.03-.202.067-.035.037-.047.097-.062.21-.018.13-.06.267-.096.303-.036.035-.24.075-.454.089-.177.011-.277.021-.341.047-.065.027-.095.069-.135.145-.047.092-.136.184-.197.203-.066.021-.129.09-.174.181a.748.748 0 0 0-.074.322c0 .214-.039.364-.127.46-.088.097-.225.14-.421.141-.089 0-.296.03-.46.065-.14.03-.216.05-.264.09-.049.038-.069.096-.097.202-.045.166-.101.237-.21.264-.097.024-.159.092-.183.2-.042.19-.076.307-.129.397a.73.73 0 0 1-.244.232c-.17.114-.277.22-.34.363-.065.143-.087.323-.087.587 0 .38.026.486.19.79.136.25.2.46.224.736l.034.386.365.081c.166.037.261.063.334.11.072.046.121.114.197.234.098.156.238.288.34.324.172.06.396.279.4.39 0 .033-.13.262-.289.508-.16.246-.308.532-.33.636a.337.337 0 0 1-.195.239c-.107.052-.257.077-.453.077h-.238l.05.462c.046.42.063.685.043.88a.894.894 0 0 1-.185.47c-.122.17-.188.333-.188.462 0 .088.01.144.059.205.05.06.138.126.296.232.196.13.36.278.365.327.014.152-.014.267-.072.289a.306.306 0 0 0-.173.162.734.734 0 0 0-.059.317c0 .24.023.296.144.361.076.04.13.096.163.176.034.08.05.185.05.324a.71.71 0 0 0 .12.338c.105.147.115.225.082.605-.027.295-.048.457-.104.544-.056.087-.145.101-.308.101-.146 0-.266.026-.266.06 0 .032-.038.059-.085.059-.085 0-.196.31-.332.923a1.677 1.677 0 0 1-.154.433c-.101.156-.484.41-.7.463a.256.256 0 0 0-.182.174.23.23 0 0 1-.142.158.845.845 0 0 1-.33.052c-.184.001-.283.016-.337.12-.053.104-.06.298-.06.657 0 .32 0 .482.018.57.018.087.054.1.124.118.077.019.13.061.164.14.034.08.05.195.053.362.002.115.036.298.075.408.03.083.06.137.114.181a.81.81 0 0 0 .255.117c.139.046.214.075.262.122.047.046.066.111.092.23.031.138.077.253.102.253.025 0 .063.092.084.206.021.113.075.237.12.274.106.088.174.453.102.548-.03.04-.088.186-.127.323-.044.153-.116.264-.186.286-.083.026-.125.113-.153.316a5.197 5.197 0 0 1-.092.489c-.074.283-.069.7.008.726.034.011.083.168.108.347.024.18.117.47.205.644.088.175.16.367.16.426 0 .06-.16.286-.357.503-.197.217-.357.42-.357.45 0 .03-.092.073-.205.094-.112.02-.217.072-.233.113-.016.04-.152.132-.302.203-.15.07-.273.155-.273.188 0 .063-.044.068-.164.02 0-.181-.134.662 0 .541.04.008.15.047.242.084.092.038.266.07.387.07.184 0 .3.014.385.06.086.046.14.126.199.257.054.119.085.18.138.215.054.035.13.043.272.052.224.014.339.057.461.174.073.07.11.11.122.146.01.035-.006.063-.045.106-.051.056-.102.29-.126.576-.02.234-.029.356-.012.441.016.086.057.136.138.227.092.103.19.187.22.187.029 0 .179.058.333.128.248.114.527.166 1.424.267.196.022.31.086.518.289.147.142.32.276.383.296.065.02.112.07.142.154.03.084.045.202.045.361 0 .144.494.444.603.533.73.061 1.475-.53 1.877-1.142.175-.202.335-.417.354-.478.019-.06.059-.11.088-.11.03 0 .097-.082.15-.183a.58.58 0 0 1 .293-.26c.135-.06.304-.093.499-.093.29 0 1.538-.125 1.88-.315.161-.09-1.322 1.02-.774 1.058.097.007 1.064-1.137 1.156-1.21a6.164 6.164 0 0 1 1.152-.72 2.5 2.5 0 0 0 .601-.4c.176-.158.319-.334.407-.507.064-.126.103-.317.112-.49.008-.172-.014-.327-.07-.382-.051-.053-.177-.075-.295-.071-.119.003-.229.034-.25.088-.018.05-.106.09-.194.09-.084 0-.214-.08-.384-.236a6.586 6.586 0 0 1-.622-.68c-.21-.256-.316-.385-.41-.45-.092-.064-.173-.064-.334-.064-.164 0-.298.021-.298.047s.149.098.33.16c.272.092.328.134.313.235-.01.068-.092.159-.184.203-.15.071-.196.064-.44-.06-.215-.108-.293-.19-.36-.376-.076-.213-.116-.337-.12-.411-.004-.075.026-.1.09-.12.082-.027.186-.115.284-.231a1.58 1.58 0 0 0 .243-.4c.053-.131.13-.238.174-.238.043 0 .127-.06.187-.135a1.4 1.4 0 0 1 .271-.239.904.904 0 0 0 .262-.297c.054-.106.175-.281.27-.39.093-.107.237-.328.32-.49.082-.163.177-.296.21-.296s.085-.067.116-.15c.07-.183.641-.904.75-.946.043-.017.133-.137.2-.268.067-.13.24-.32.383-.418.144-.1.277-.241.296-.316.031-.125.156-.286.34-.46a5.11 5.11 0 0 1 .685-.537 6.6 6.6 0 0 1 .812-.467c.268-.127.52-.219.72-.25a2.62 2.62 0 0 0 .493-.122c.082-.033.133-.048.193-.037a.83.83 0 0 1 .238.12c.172.109.33.157.513.157h.264l.214-.431c.127-.257.23-.415.384-.533.155-.118.36-.196.693-.29.262-.075.526-.187.587-.248a.688.688 0 0 1 .328-.188c.15-.043.356-.07.664-.096.314-.027.645-.09.744-.143a.838.838 0 0 1 .313-.095c.074 0 .134-.024.134-.052 0-.096 1.05-.72 1.215-.722.03 0 .194-.067.365-.148.17-.08.544-.215.83-.297.285-.083.538-.163.562-.178.024-.014.43-.112.903-.215.852-.187 1.938-.516 2.27-.688a4.74 4.74 0 0 1 .559-.208c.212-.065.385-.141.385-.169 0-.057.105-.118.257-.164a1.94 1.94 0 0 1 .538-.079c.214 0 .404-.023.422-.052.017-.029.335-.204.705-.389.29-.144.475-.23.644-.286.168-.056.32-.082.54-.107.281-.032.605-.098.72-.146.114-.047.406-.11.648-.141.39-.049.815-.208 1.156-.408.17-.1.32-.211.434-.323a.758.758 0 0 0 .217-.33c.02-.078.062-.141.094-.141s.059-.1.06-.224c0-.132.103-.409.225-.656.122-.247.263-.465.335-.48.053-.01.139-.104.191-.208a1.71 1.71 0 0 1 .212-.318.964.964 0 0 0 .172-.368c.03-.133.12-.312.202-.4.081-.088.218-.284.304-.436.117-.205.31-.428.511-.61.201-.18.41-.318.558-.35.135-.03.324-.097.42-.147a.804.804 0 0 1 .267-.092c.051 0 .184-.067.295-.149.11-.082.225-.149.254-.149.057 0 .755-.558.997-.797.212-.21.74-.562.903-.603.077-.02.247-.145.378-.28.139-.142.46-.353.774-.507.295-.145.764-.381 1.042-.525.279-.144.543-.263.587-.264a.733.733 0 0 0 .238-.09c.087-.048.252-.13.367-.18.336-.151.557-.277.685-.389.127-.111.746-.415.845-.415.1 0 .26-.214.319-.429.04-.148.114-.232.266-.305a.653.653 0 0 0 .278-.25c.045-.098.146-.17.297-.21.126-.035.229-.084.229-.111 0-.027.154-.09.343-.141.188-.05.516-.156.73-.234.177-.066.279-.109.366-.18.087-.07.159-.17.277-.346.14-.21.278-.397.305-.414a.919.919 0 0 0 .148-.228c.055-.108.146-.213.202-.232a1.48 1.48 0 0 0 .28-.168c.098-.073.306-.19.461-.26.156-.071.283-.152.283-.179 0-.027.067-.122.15-.21.081-.088.148-.199.148-.245 0-.188.194-.552.325-.612.08-.036.17-.155.21-.274.055-.17.112-.223.288-.272a1.75 1.75 0 0 1 .387-.061c.13 0 .18-.038.227-.174.046-.132.113-.187.278-.226.098-.023.154-.043.195-.089.041-.045.067-.117.102-.242.053-.185.138-.32.255-.404.096-.068.175-.176.175-.24 0-.108.062-.408.187-.904.031-.123.082-.224.114-.224.063 0 .077-.539.022-.818-.027-.133-.093-.202-.267-.278-.189-.084-.237-.141-.27-.317a1.603 1.603 0 0 0-.121-.368.802.802 0 0 1-.08-.31c-.001-.2.114-.53.185-.53.05 0 .046-.198.016-.413-.03-.214-.088-.445-.146-.51a1.05 1.05 0 0 1-.168-.278c-.037-.097-.191-.237-.373-.358-.181-.122-.39-.226-.538-.252-.12-.022-.232-.078-.25-.126-.02-.049-.07-.088-.115-.088-.044 0-.127-.1-.185-.221-.122-.255-.24-1.258-.185-1.566.028-.158.155-.426.29-.655.136-.228.281-.417.346-.417.06 0 .109.04.109.09 0 .067.123.148.29.213.165.065.374.113.542.113a1.2 1.2 0 0 0 .456-.089.885.885 0 0 1 .34-.089c.118 0 .18-.036.2-.116.017-.063.108-.142.203-.175.086-.03.13-.046.15-.116.023-.07.023-.193.024-.44 0-.287.01-.477.035-.596.024-.119.034-.166.093-.166-.36-1.03.041-.27-.15-.77 0-.031-.318-.302-.44-.303a1.25 1.25 0 0 1-.366-.042c-.083-.028-.126-.07-.126-.122 0-.076-.075-.085-.471-.058-.269.019-.467.003-.607-.052a.391.391 0 0 1-.256-.285c-.021-.085-.065-.155-.097-.155-.035 0-.058-.288-.058-.717v-.717l-.81.008c-.385.004-.59.005-.715-.013a.38.38 0 0 1-.246-.119c-.344-.314-.444-.427-.492-.555-.025-.066-.042-.1-.187-.116-.145-.017-.418-.018-.956-.018-.6 0-1.137.023-1.191.051-.055.028-.117.13-.138.227l-.039.176-.51-.036c-.432-.03-.517-.022-.563.06-.03.053-.15.115-.267.137-.162.03-.226.079-.27.207a.89.89 0 0 1-.267.325c-.114.087-.232.224-.262.303-.027.07-.044.106-.101.12-.057.013-.154.005-.337-.014a2.842 2.842 0 0 0-.77.01c-.205.036-.36.106-.452.208a1.01 1.01 0 0 1-.343.237c-.148.052-.195.109-.226.276-.026.138-.08.222-.156.242-.088.023-.114.083-.114.257 0 .125.025.294.055.374.038.1.043.194.02.27a.213.213 0 0 1-.15.15c-.069.017-.273-.021-.455-.085a2.393 2.393 0 0 0-.733-.116c-.188 0-.29.003-.357.025-.067.022-.1.063-.147.14-.08.127-.144.205-.226.251-.082.046-.181.06-.327.06-.202 0-.33-.013-.42-.051-.089-.038-.14-.102-.186-.206-.053-.122-.193-.253-.393-.368-.248-.142-.32-.218-.35-.372-.017-.087-.032-.135-.065-.162-.033-.027-.084-.032-.174-.032-.337 0-1.394-.268-1.394-.354 0-.027-.074-.068-.164-.09a.77.77 0 0 1-.283-.15c-.075-.07-.252-.122-.476-.144a17.8 17.8 0 0 0-1.029-.086c-.16-.002-.188.02-.24.066-.124.11-.288.195-.48.253a2.283 2.283 0 0 1-.654.088c-.395 0-.516.025-.744.152-.124.07-.194.115-.24.18-.048.066-.072.152-.106.305-.04.183-.113.363-.16.4a5.468 5.468 0 0 0-.283.25 1.745 1.745 0 0 1-.53.306 1.65 1.65 0 0 1-.589.128 2.3 2.3 0 0 1-.515-.089c-.12-.037-.192-.067-.256-.13s-.12-.158-.208-.325c-.141-.27-.194-.45-.193-.652.001-.222-.021-.286-.111-.314-.058-.019-.104-.067-.135-.141a.777.777 0 0 1-.05-.293c0-.11-.034-.134-.18-.134a.65.65 0 0 0-.288.068c-.074.046-.206.05-.33.024-.122-.024-.235-.078-.272-.146-.032-.06-.153-.124-.269-.143-.116-.019-.325-.126-.464-.238-.187-.152-.306-.237-.433-.284-.127-.047-.264-.056-.488-.056-.237 0-.456-.033-.524-.078-.163-.109-.411-.18-.64-.203-.23-.023-.441 0-.532.083-.085.077-.127.084-.18.03-.04-.038-.213-.07-.387-.07h-.315v.234c0 .208-.018.335-.085.424-.067.088-.185.139-.385.195-.2.055-.482.1-.628.1-.146 0-.28.025-.3.055-.018.03-.111.072-.206.093-.142.031-.193.093-.28.332a.762.762 0 0 1-.12.248c-.043.047-.096.066-.18.082-.22.041-1.185.012-1.234-.038-.018-.018-.077-.236-.132-.486l-.1-.454.217-.19c.096-.085.15-.14.18-.207.03-.066.036-.144.036-.273 0-.148-.035-.296-.105-.442a1.61 1.61 0 0 0-.315-.43.328.328 0 0 1-.109-.214c-.016-.106-.016-.273-.011-.574.005-.309.005-.477-.015-.602a.915.915 0 0 0-.14-.339 2.269 2.269 0 0 0-.202-.314c-.022-.016-.083-.177-.135-.357a1.623 1.623 0 0 0-.214-.44c-.087-.127-.178-.216-.238-.216-.028 0-.081-.12-.118-.267a.583.583 0 0 0-.101-.244.64.64 0 0 0-.229-.148c-.216-.102-.272-.162-.314-.342l-.051-.22-.4-.017a3.933 3.933 0 0 0-.821.07c-.368.076-.455.077-.664.003-.271-.096-.71-.113-.795-.032-.031.03-.22.096-.42.146-.174.044-.268.065-.348.061-.08-.003-.144-.032-.26-.09-.111-.055-.174-.092-.217-.154-.042-.062-.066-.15-.099-.304-.042-.198-.095-.336-.181-.446-.087-.11-.208-.193-.388-.277-.145-.068-.278-.162-.296-.207-.025-.066-.199-.083-.826-.083-.444 0-.699-.006-.863-.037a.456.456 0 0 1-.316-.19c-.066-.084-.193-.131-.337-.14a.858.858 0 0 0-.442.09.56.56 0 0 1-.28.083c-.076-.005-.139-.041-.202-.111a.873.873 0 0 0-.323-.186 3.759 3.759 0 0 1-.424-.172 3.439 3.439 0 0 0-1.296-.355c-.27-.023-.524-.074-.563-.113-.04-.039-.153-.071-.253-.073-.195-.003-.599-.16-.45-.175.063-.007.054-.025-.03-.06.217 0-.865-.023-.649-.017z"/>
  </g>
  <g fill="#b3b3b3">
    <path d="M13.3 70.448c-.309-.033-.386-.02-.529.086a.907.907 0 0 1-.399.141 1.332 1.332 0 0 0-.432.103c-.113.051-.186.115-.186.177 0 .078.046.142.123.19a.768.768 0 0 0 .313.092c.252.027.572-.017.842-.145.258-.121.628-.465.628-.581 0-.014-.162-.043-.36-.063zM34.688 22.99c-.066 0-.12.037-.12.081 0 .044-.054.13-.12.19-.096.087-.12.17-.105.38a.597.597 0 0 0 .041.227c.024.045.062.065.126.083.223.062.495.058.595-.008.08-.052.08-.065 0-.117a.376.376 0 0 0-.162-.06c-.04 0-.117-.085-.17-.188-.075-.146-.082-.218-.031-.33.046-.102.067-.166.058-.205-.008-.039-.044-.052-.112-.052z"/>
    <path d="M11.075 15.111c-.089.023-.096.04-.032.08.065.039.058.059-.033.094-.1.038-.241.153-.358.276-.117.123-.209.253-.209.32a.3.3 0 0 0 .093.203c.064.053.08.136.052.231a.718.718 0 0 1-.208.305c-.085.08-.13.124-.152.222-.022.098-.023.248-.023.542 0 .294 0 .445.02.526.018.081.055.094.126.112.122.03.157.092.214.373.037.185.092.384.122.44a.5.5 0 0 1 .053.264c-.007.08-.038.14-.088.14-.065 0-.09.065-.09.237 0 .131.026.239.059.239.032 0 .11.103.176.23.064.128.156.247.203.265.047.018.146.215.22.438.073.224.16.44.191.481.062.078.341.166.709.223.17.026.226.067.256.188.026.102-.048.405-.148.696-.1.292-.228.571-.308.627-.1.07-.116.142-.104.478.01.29.015.438-.01.518-.024.08-.079.094-.186.118-.123.026-.193.054-.233.118-.04.063-.049.163-.05.333 0 .193.038.323.13.44.083.106.138.277.155.48.021.252.06.347.192.464.11.098.18.235.21.406.023.142.069.275.102.296.081.052.076.369-.007.396-.037.013-.068.128-.068.258 0 .195.025.244.15.291.068.026.106.047.126.107.02.06.022.158.022.338 0 .306.02.389.09.389.055 0 .083.016.083.083 0 .068-.028.187-.083.393-.048.18-.088.452-.089.603 0 .188-.055.376-.173.598-.123.23-.191.472-.237.842-.035.285-.09.57-.124.634-.036.065-.062.521-.062 1.058 0 .807-.016.973-.111 1.15-.062.115-.13.295-.154.402-.023.106-.067.208-.097.226-.03.019-.055.12-.055.226 0 .105-.054.29-.12.413a1.177 1.177 0 0 0-.119.522c0 .227-.03.4-.093.522a.423.423 0 0 1-.295.229c-.095.022-.154.044-.2.09a.607.607 0 0 0-.118.224c-.074.199-.142.279-.28.328a1.19 1.19 0 0 0-.373.26.589.589 0 0 0-.16.225c-.025.078-.03.177-.03.348v.377l.263.1c.196.075.273.141.303.26.022.09.062.175.09.192.027.017.057.168.065.335.013.239-.012.34-.114.47-.071.09-.13.2-.13.245 0 .048-.095.096-.231.118-.109.017-.167.03-.202.067-.035.037-.047.097-.062.209-.017.131-.06.268-.096.303-.035.036-.24.076-.453.09-.178.01-.277.02-.342.047-.065.026-.095.068-.135.144-.047.093-.136.184-.196.203-.067.021-.13.09-.175.182a.748.748 0 0 0-.074.322c0 .213-.039.363-.127.46-.088.096-.225.14-.42.14-.09.001-.296.03-.461.066-.14.03-.216.05-.264.089-.048.039-.069.096-.097.202-.045.166-.1.237-.209.264-.097.025-.16.092-.183.2-.042.19-.076.308-.13.397a.73.73 0 0 1-.243.232c-.17.115-.277.22-.341.363-.065.143-.086.323-.086.588 0 .38.025.485.19.789.135.25.2.461.223.736l.034.386.365.081c.167.037.262.063.334.11.072.047.121.114.197.235.099.155.238.288.34.323.172.06.396.279.4.39 0 .034-.13.262-.289.508-.159.246-.308.532-.33.636a.337.337 0 0 1-.195.239c-.106.052-.256.077-.453.077h-.238l.05.462c.046.42.064.685.043.88a.894.894 0 0 1-.185.47c-.122.17-.188.333-.188.462 0 .088.01.145.06.205.049.061.137.126.295.232.196.131.36.278.365.327.015.152-.014.268-.072.289a.306.306 0 0 0-.173.163.734.734 0 0 0-.058.317c0 .239.022.296.143.36.076.041.13.096.164.176.034.08.049.185.05.325 0 .093.054.245.12.337.104.147.115.225.081.605-.026.296-.048.457-.104.545-.055.087-.145.1-.307.1-.147 0-.266.027-.266.06 0 .032-.039.06-.086.06-.084 0-.196.309-.332.923a1.677 1.677 0 0 1-.153.432c-.102.156-.485.41-.7.464a.256.256 0 0 0-.183.174.23.23 0 0 1-.141.158.845.845 0 0 1-.33.052c-.185 0-.284.015-.338.12-.053.104-.06.298-.06.656 0 .32 0 .482.018.57.018.088.054.1.125.118.076.02.129.062.163.14.034.08.05.196.053.362.002.115.036.299.076.409.029.083.06.137.113.18a.81.81 0 0 0 .255.118c.14.045.215.074.262.121.047.047.067.111.093.23.03.139.076.253.101.253.025 0 .063.093.084.206.022.114.076.237.12.274.106.088.174.453.102.548-.03.04-.088.186-.127.323-.044.153-.116.264-.186.286-.083.027-.125.114-.152.317a5.197 5.197 0 0 1-.093.488c-.073.284-.069.7.008.726.035.012.083.168.108.348.025.18.117.469.205.644.089.174.16.366.16.426s-.16.285-.357.502c-.197.217-.357.42-.357.45 0 .03-.092.073-.204.094-.113.021-.218.072-.234.113-.015.041-.151.132-.302.203-.15.07-.273.155-.273.188 0 .063-.044.068-.164.02 0-.18-.134.662 0 .541.041.009.15.047.242.085.093.038.267.069.387.07.184 0 .3.013.386.06.085.046.139.125.198.256.054.12.085.181.138.216.054.034.13.042.273.051.224.014.338.057.46.175.073.069.111.11.122.145.01.035-.006.064-.044.106-.052.057-.103.29-.127.576-.02.234-.028.356-.012.442.016.085.058.135.139.226.091.103.19.188.219.188.03 0 .18.057.333.127.248.114.528.166 1.424.268.196.022.31.086.519.288.147.143.319.277.382.297.065.02.112.07.142.153.03.084.045.203.046.362 0 .143.493.444.602.533.73.06 1.475-.53 1.877-1.142.176-.203.335-.418.354-.478.02-.06.059-.11.089-.11s.096-.083.149-.184a.582.582 0 0 1 .294-.26 1.23 1.23 0 0 1 .498-.093c.29 0 1.538-.124 1.88-.314.162-.09-1.321 1.019-.774 1.058.097.007 1.064-1.138 1.157-1.211a6.164 6.164 0 0 1 1.152-.72 2.5 2.5 0 0 0 .6-.4c.176-.158.319-.333.407-.507.065-.126.103-.316.112-.489.008-.173-.013-.328-.069-.383-.052-.052-.178-.075-.296-.071-.118.004-.228.034-.25.089-.018.049-.106.09-.194.09-.083 0-.214-.081-.384-.236a6.586 6.586 0 0 1-.622-.68c-.21-.257-.316-.386-.409-.45-.093-.064-.174-.065-.335-.065-.163 0-.297.021-.297.047s.148.098.33.16c.272.092.327.134.313.235-.01.068-.093.16-.185.203-.149.071-.196.065-.44-.06-.215-.108-.292-.189-.36-.376-.076-.213-.115-.336-.12-.41-.004-.075.027-.101.09-.121.082-.027.187-.115.284-.231.097-.116.188-.26.243-.4.053-.13.131-.238.174-.238.044 0 .127-.06.187-.134.06-.074.182-.182.271-.24a.904.904 0 0 0 .262-.297c.054-.106.176-.281.27-.389a2.98 2.98 0 0 0 .32-.491c.082-.163.177-.296.21-.296s.085-.067.117-.15c.07-.183.64-.904.75-.946.042-.016.132-.137.2-.268.066-.13.239-.319.382-.418.144-.099.277-.241.296-.316.031-.124.156-.286.34-.46.183-.174.423-.361.685-.537a6.6 6.6 0 0 1 .813-.466c.267-.128.52-.22.72-.25.17-.026.392-.081.492-.122.082-.034.134-.049.193-.037.059.011.126.049.238.12a.92.92 0 0 0 .513.157h.264l.214-.432c.127-.256.23-.415.385-.533.154-.118.36-.195.692-.29.263-.075.527-.186.587-.248a.688.688 0 0 1 .328-.187 3.68 3.68 0 0 1 .664-.097c.315-.026.645-.09.745-.142a.838.838 0 0 1 .312-.096c.074 0 .134-.023.134-.052 0-.095 1.051-.72 1.216-.722.03 0 .193-.067.364-.148.17-.08.544-.214.83-.297.285-.083.539-.162.563-.177.024-.015.43-.112.903-.216.851-.186 1.937-.515 2.27-.687.095-.05.346-.143.558-.208.212-.066.385-.142.385-.17 0-.057.105-.118.257-.164a1.94 1.94 0 0 1 .538-.078c.215 0 .404-.024.422-.053.018-.029.335-.204.705-.388a5.2 5.2 0 0 1 .644-.287c.169-.056.32-.082.54-.107.282-.032.606-.097.72-.145.115-.048.406-.112.649-.142a3.17 3.17 0 0 0 1.155-.408c.17-.1.32-.21.434-.322a.758.758 0 0 0 .218-.33c.02-.078.061-.142.093-.142s.06-.1.06-.223c0-.133.104-.41.226-.657.122-.247.262-.465.334-.48.053-.01.139-.104.191-.208a1.71 1.71 0 0 1 .213-.317.964.964 0 0 0 .171-.369c.03-.132.121-.312.202-.4a2.82 2.82 0 0 0 .305-.435c.116-.205.31-.429.51-.61.201-.18.41-.318.559-.351a2.03 2.03 0 0 0 .419-.147.804.804 0 0 1 .267-.091c.051 0 .184-.067.295-.15.111-.081.226-.148.255-.148.056 0 .754-.559.996-.798.212-.21.74-.561.904-.603.076-.019.246-.145.377-.279.14-.142.46-.353.774-.507.295-.145.764-.382 1.043-.526.278-.144.542-.263.586-.264a.733.733 0 0 0 .239-.09c.087-.047.252-.129.366-.18.337-.15.558-.276.685-.388.127-.112.746-.416.846-.416.1 0 .259-.214.318-.429.041-.148.114-.232.266-.304a.653.653 0 0 0 .279-.25c.045-.1.145-.17.296-.211.126-.034.23-.084.23-.11 0-.028.153-.091.342-.142.188-.05.516-.156.73-.234.177-.065.28-.108.366-.18.087-.07.16-.17.277-.345.141-.211.279-.398.305-.415a.919.919 0 0 0 .148-.228c.056-.108.146-.212.202-.232a1.48 1.48 0 0 0 .28-.168c.098-.072.306-.19.462-.26.155-.07.283-.151.283-.178 0-.027.067-.122.149-.21.081-.089.148-.2.148-.246 0-.188.194-.552.325-.612.08-.036.17-.155.21-.274.056-.17.112-.223.288-.272.121-.033.295-.06.387-.061.13 0 .18-.038.227-.174.046-.132.114-.186.279-.225.097-.023.154-.044.195-.09.04-.045.066-.116.101-.241.053-.186.138-.32.255-.404.097-.069.176-.177.176-.24 0-.108.062-.409.186-.905.031-.123.083-.224.114-.224.063 0 .078-.539.022-.817-.027-.134-.093-.202-.266-.279-.19-.083-.238-.14-.27-.316a1.603 1.603 0 0 0-.122-.37.802.802 0 0 1-.08-.308c-.001-.201.114-.53.185-.53.05 0 .046-.199.016-.413-.03-.215-.087-.446-.146-.51a1.05 1.05 0 0 1-.168-.278c-.037-.098-.19-.237-.372-.36-.182-.12-.39-.225-.538-.251-.12-.021-.233-.078-.252-.126-.018-.048-.07-.088-.113-.088-.044 0-.128-.1-.186-.22-.122-.256-.24-1.259-.185-1.567.029-.158.155-.426.29-.654.136-.229.281-.418.347-.418.06 0 .108.04.108.091 0 .066.124.148.29.213.166.065.374.113.542.113a1.2 1.2 0 0 0 .457-.09.885.885 0 0 1 .34-.088c.117 0 .178-.036.2-.116.016-.064.108-.143.203-.176.086-.03.128-.045.15-.115.022-.07.023-.194.023-.44 0-.287.01-.478.035-.597.024-.118.034-.166.093-.166-.36-1.03.041-.27-.15-.77 0-.03-.318-.302-.44-.302a1.21 1.21 0 0 1-.366-.043c-.083-.028-.126-.069-.126-.121 0-.077-.074-.086-.47-.058-.27.018-.468.002-.608-.053a.391.391 0 0 1-.255-.285c-.022-.085-.066-.154-.098-.154-.035 0-.058-.289-.058-.718v-.716l-.81.008c-.385.003-.59.004-.715-.013a.38.38 0 0 1-.246-.12c-.343-.314-.444-.427-.492-.554-.025-.066-.042-.1-.187-.117s-.417-.017-.956-.017c-.6 0-1.136.022-1.19.05-.056.028-.118.13-.14.227l-.038.176-.51-.036c-.431-.03-.517-.021-.563.06-.03.053-.15.115-.267.137-.162.03-.226.08-.27.207a.89.89 0 0 1-.267.326c-.114.087-.232.223-.262.303-.027.07-.044.105-.101.119-.057.014-.153.005-.336-.014a2.842 2.842 0 0 0-.77.01c-.206.037-.36.107-.453.209a1.02 1.02 0 0 1-.343.237c-.148.051-.195.108-.226.276-.026.138-.08.222-.155.241-.089.024-.115.083-.115.258 0 .125.025.293.056.374.037.1.042.194.019.269a.213.213 0 0 1-.15.15c-.068.017-.273-.02-.454-.085a2.393 2.393 0 0 0-.734-.115c-.187 0-.29.002-.357.024s-.1.063-.147.14c-.08.127-.144.205-.226.251-.082.047-.18.06-.327.06-.201 0-.33-.013-.419-.05-.09-.039-.14-.102-.186-.207-.054-.121-.194-.252-.394-.367-.247-.143-.32-.219-.35-.373-.017-.086-.032-.135-.065-.162-.033-.026-.084-.032-.174-.032-.337 0-1.394-.268-1.394-.353 0-.028-.074-.069-.164-.091a.77.77 0 0 1-.283-.15c-.074-.069-.251-.122-.476-.144a17.8 17.8 0 0 0-1.029-.086c-.16-.002-.188.02-.24.067a1.28 1.28 0 0 1-.48.252 2.283 2.283 0 0 1-.653.089c-.396 0-.516.024-.744.152-.125.07-.195.114-.242.18-.046.066-.07.152-.105.304-.04.183-.113.363-.16.4a6.005 6.005 0 0 0-.283.25 1.745 1.745 0 0 1-.53.307 1.65 1.65 0 0 1-.588.128 2.3 2.3 0 0 1-.516-.09c-.12-.037-.192-.067-.256-.13-.064-.062-.12-.158-.208-.325-.141-.27-.194-.45-.193-.651.002-.222-.021-.287-.11-.315-.058-.018-.104-.067-.136-.141a.777.777 0 0 1-.05-.293c0-.11-.034-.134-.18-.134a.65.65 0 0 0-.288.068c-.074.046-.206.05-.329.025-.123-.025-.236-.078-.273-.147-.032-.06-.152-.124-.269-.142-.116-.02-.324-.127-.463-.239-.188-.151-.306-.236-.434-.283-.127-.047-.264-.056-.487-.056-.238 0-.457-.033-.525-.079-.163-.108-.41-.18-.64-.203-.23-.023-.44 0-.532.084-.085.076-.127.083-.18.03-.04-.039-.213-.07-.386-.07h-.316v.234c0 .208-.017.335-.085.423-.067.089-.184.14-.385.195-.2.055-.482.1-.628.1-.146 0-.28.026-.299.056-.019.03-.112.072-.207.093-.142.03-.193.092-.28.332a.785.785 0 0 1-.12.248c-.043.047-.096.066-.18.081-.22.042-1.185.012-1.234-.037-.018-.018-.077-.237-.132-.487l-.1-.454.217-.19c.096-.085.15-.14.18-.206a.656.656 0 0 0 .037-.273c0-.15-.036-.297-.106-.443a1.61 1.61 0 0 0-.314-.43.328.328 0 0 1-.11-.213c-.016-.107-.016-.273-.011-.575.005-.309.005-.477-.015-.601a.915.915 0 0 0-.139-.34 2.269 2.269 0 0 0-.203-.313c-.022-.017-.083-.178-.135-.358a1.623 1.623 0 0 0-.214-.44c-.087-.126-.178-.215-.238-.215-.028 0-.081-.12-.118-.268a.583.583 0 0 0-.101-.243.64.64 0 0 0-.228-.149c-.216-.101-.272-.162-.315-.342l-.051-.22-.4-.017a4.008 4.008 0 0 0-.821.07c-.368.076-.455.077-.664.003-.27-.095-.709-.113-.795-.031-.03.03-.22.095-.42.145-.173.044-.268.066-.347.062-.08-.004-.145-.033-.26-.09-.112-.055-.175-.092-.217-.155-.043-.062-.067-.149-.1-.303-.042-.198-.094-.337-.181-.447-.087-.11-.208-.192-.388-.277-.145-.068-.278-.161-.295-.207-.025-.066-.2-.083-.827-.082-.444 0-.699-.006-.862-.038a.456.456 0 0 1-.316-.19c-.066-.083-.193-.131-.338-.14a.858.858 0 0 0-.442.09.56.56 0 0 1-.28.083c-.075-.004-.139-.041-.202-.111a.873.873 0 0 0-.322-.186 3.759 3.759 0 0 1-.425-.172 3.439 3.439 0 0 0-1.296-.355c-.27-.023-.524-.073-.563-.112-.04-.04-.153-.072-.252-.073-.195-.003-.6-.16-.45-.176.062-.006.053-.024-.03-.06.216 0-.866-.022-.65-.017z"/>
  </g>
  <path d="M6.217 0C2.809 0 0 2.683 0 6.023V80.12c0 3.34 2.81 6.024 6.217 6.024h49.637a6.276 6.276 0 0 0 5.181-2.704 6.276 6.276 0 0 0 5.182 2.704h49.637c3.407 0 6.216-2.683 6.216-6.024V6.023c0-3.34-2.809-6.023-6.216-6.023H66.217a6.273 6.273 0 0 0-5.182 2.703A6.276 6.276 0 0 0 55.854 0H6.217zm0 2h49.637c2.21 0 3.939 1.565 4.17 3.576a5.527 5.527 0 0 0-.024.447V80.12c0 .151.012.299.023.447-.23 2.012-1.959 3.577-4.17 3.577H6.218C3.843 84.143 2 82.345 2 80.119V6.023C2 3.798 3.843 2 6.217 2zm60 0h49.637c2.374 0 4.216 1.798 4.216 4.023V80.12c0 2.226-1.842 4.024-4.216 4.024H66.217c-2.21 0-3.94-1.566-4.17-3.577.011-.148.023-.296.023-.447V6.023c0-.15-.012-.298-.023-.447.23-2.011 1.96-3.576 4.17-3.576zM26.18 35.576l2.88 3.434-5.091 4.271-.002-.002-.045.043-.33.276a.434.434 0 0 0-.096.115l-.223.205 5.502 6.584.696-.637-.02-.023 5.358-4.496 2.345 2.797 1.01-11.518-11.984-1.049zm59.93.342l2.88 3.434-5.092 4.271-.002-.002-.044.043-.33.275a.434.434 0 0 0-.096.116l-.223.205 5.502 6.584.695-.637-.02-.023 5.358-4.496 2.346 2.796 1.01-11.517-11.985-1.049zm-57.922.703l9.039.791-.75 8.572-1.561-1.861-6.021 5.053-4.372-5.229 5.758-4.83-2.093-2.496zm59.93.342l9.038.79-.75 8.573-1.56-1.861-6.022 5.053-4.37-5.229 5.757-4.83-2.094-2.496z"/>
</svg>
